<svg width="75" height="75" viewBox="0 0 75 75" fill="none" xmlns="http://www.w3.org/2000/svg">
<path d="M49.2187 48.9028C49.2187 53.7674 53.1437 57.7246 57.9688 57.7246C62.7922 57.7246 66.7187 53.7674 66.7187 48.9028C66.7187 44.0381 62.7922 40.0809 57.9688 40.0809C53.1437 40.0809 49.2187 44.0381 49.2187 48.9028ZM17.0312 40.0809C21.8547 40.0809 25.7812 44.0381 25.7812 48.9028C25.7812 53.7674 21.8547 57.7246 17.0312 57.7246C12.2062 57.7246 8.28124 53.7674 8.28124 48.9028C8.28124 44.0381 12.2062 40.0809 17.0312 40.0809ZM29.2136 29.9986H21.3959C19.5128 29.9986 17.7533 29.158 16.5614 27.6908L13.1162 22.653C12.6627 21.9898 12.9328 21.0722 13.6734 20.7696C18.12 18.9527 23.4509 17.6139 29.392 17.7318C30.1375 17.7467 30.7064 18.4099 30.6103 19.1553L29.2136 29.9986ZM3.60468 26.4196C5.03516 25.3725 6.83875 24.1773 8.96375 23.0149C9.52702 22.7067 10.2302 22.8729 10.5939 23.4049L14.5312 29.1624C15.9317 31.0593 18.5027 32.5192 21.3961 32.5192C22.2831 32.5192 60.3777 32.5192 59.7611 32.5192C63.3641 32.5192 66.9505 33.0121 70.4219 33.9844C73.103 34.7352 75 37.2225 75 40.0573V48.8713C75 49.5672 74.4403 50.1315 73.75 50.1315H70.4694C69.7791 50.1315 69.2217 49.5671 69.2208 48.8709C69.212 42.7153 64.2292 37.5604 57.9689 37.5604C51.5744 37.5604 46.5589 42.9171 46.7211 49.1813C46.7395 49.8913 46.1775 50.4781 45.473 50.4781H29.5272C28.8227 50.4781 28.2608 49.8913 28.2791 49.1813C28.4403 42.925 23.4342 37.5604 17.0312 37.5604C10.6641 37.5604 5.62718 42.8877 5.78233 49.1676C5.79984 49.8768 5.23781 50.4623 4.53421 50.4623H1.24999C0.559685 50.4623 0 49.8981 0 49.2021V33.5559C0 30.7392 1.34687 28.0722 3.60468 26.4196ZM31.7347 29.9986L33.115 19.2824C33.2059 18.5767 33.8575 18.0868 34.5544 18.1997C42.008 19.4085 48.7267 22.7969 54.2933 27.7993C55.1498 28.569 54.6061 29.9986 53.4587 29.9986H31.7347Z" fill="#F4BB26"/>
</svg>
