<svg width="75" height="75" viewBox="0 0 75 75" fill="none" xmlns="http://www.w3.org/2000/svg">
<path fill-rule="evenodd" clip-rule="evenodd" d="M4 21C1.79086 21 0 22.7909 0 25V51C0 53.2091 1.79086 55 4 55H71C73.2091 55 75 53.2091 75 51V25C75 22.7909 73.2091 21 71 21H4ZM28.0938 44V41.9609H23.7344C23.849 41.763 23.9974 41.5599 24.1797 41.3516C24.3672 41.1432 24.8073 40.7214 25.5 40.0859C26.1927 39.4505 26.6719 38.9635 26.9375 38.625C27.3385 38.1146 27.6302 37.6276 27.8125 37.1641C28 36.6953 28.0938 36.2031 28.0938 35.6875C28.0938 34.7812 27.7708 34.0234 27.125 33.4141C26.4792 32.8047 25.5911 32.5 24.4609 32.5C23.4297 32.5 22.5703 32.763 21.8828 33.2891C21.1953 33.8151 20.7865 34.6823 20.6562 35.8906L22.8438 36.1094C22.8854 35.4688 23.0417 35.0104 23.3125 34.7344C23.5833 34.4583 23.9479 34.3203 24.4062 34.3203C24.8698 34.3203 25.2318 34.4531 25.4922 34.7188C25.7578 34.9792 25.8906 35.3542 25.8906 35.8438C25.8906 36.2865 25.7396 36.7344 25.4375 37.1875C25.2135 37.5156 24.6068 38.1406 23.6172 39.0625C22.388 40.2031 21.5651 41.1198 21.1484 41.8125C20.7318 42.5 20.4818 43.2292 20.3984 44H28.0938ZM33.8906 41.6953V44H36.0156V41.6953H37.4375V39.7656H36.0156V32.5H34.1719L29.2031 39.7734V41.6953H33.8906ZM33.8906 35.8516V39.7656H31.2578L33.8906 35.8516ZM42.7969 41.6953V44H44.9219V41.6953H46.3438V39.7656H44.9219V32.5H43.0781L38.1094 39.7734V41.6953H42.7969ZM42.7969 35.8516V39.7656H40.1641L42.7969 35.8516ZM54.8125 44V41.9609H50.4531C50.5677 41.763 50.7161 41.5599 50.8984 41.3516C51.0859 41.1432 51.526 40.7214 52.2188 40.0859C52.9115 39.4505 53.3906 38.9635 53.6562 38.625C54.0573 38.1146 54.349 37.6276 54.5312 37.1641C54.7188 36.6953 54.8125 36.2031 54.8125 35.6875C54.8125 34.7812 54.4896 34.0234 53.8438 33.4141C53.1979 32.8047 52.3099 32.5 51.1797 32.5C50.1484 32.5 49.2891 32.763 48.6016 33.2891C47.9141 33.8151 47.5052 34.6823 47.375 35.8906L49.5625 36.1094C49.6042 35.4688 49.7604 35.0104 50.0312 34.7344C50.3021 34.4583 50.6667 34.3203 51.125 34.3203C51.5885 34.3203 51.9505 34.4531 52.2109 34.7188C52.4766 34.9792 52.6094 35.3542 52.6094 35.8438C52.6094 36.2865 52.4583 36.7344 52.1562 37.1875C51.9323 37.5156 51.3255 38.1406 50.3359 39.0625C49.1068 40.2031 48.2839 41.1198 47.8672 41.8125C47.4505 42.5 47.2005 43.2292 47.1172 44H54.8125Z" fill="#F4BB26"/>
</svg>
