<svg width="26" height="26" viewBox="0 0 26 26" fill="none" xmlns="http://www.w3.org/2000/svg">
<g clip-path="url(#clip0)">
<path d="M26.0001 13C26.0001 5.8203 20.1798 0 13.0001 0C5.82042 0 0.00012207 5.8203 0.00012207 13C0.00012207 20.1797 5.82042 26 13.0001 26C20.1798 26 26.0001 20.1797 26.0001 13Z" fill="#0095DB"/>
<path fill-rule="evenodd" clip-rule="evenodd" d="M13.0001 4C13.3114 4.00142 13.6096 4.12572 13.8297 4.34585C14.0498 4.56597 14.1741 4.86412 14.1755 5.17542V9.54667C14.1755 9.85891 14.0519 10.1584 13.8316 10.3797C13.6113 10.601 13.3124 10.7261 13.0001 10.7275C12.6879 10.7261 12.3889 10.601 12.1686 10.3797C11.9484 10.1584 11.8247 9.85891 11.8247 9.54667V5.17542C11.8261 4.86412 11.9504 4.56597 12.1706 4.34585C12.3907 4.12572 12.6888 4.00142 13.0001 4ZM4.1222 10.4512C4.21891 10.1556 4.42885 9.91041 4.70602 9.76929C4.98319 9.62816 5.305 9.60265 5.60095 9.69833L9.75011 11.0471C9.90077 11.0942 10.0404 11.1711 10.1609 11.2732C10.2813 11.3753 10.38 11.5005 10.4512 11.6414C10.5224 11.7823 10.5647 11.936 10.5754 12.0935C10.5862 12.251 10.5652 12.4091 10.5139 12.5583C10.4159 12.8531 10.2058 13.0974 9.92904 13.2383C9.65225 13.3793 9.33108 13.4055 9.03511 13.3112L4.87511 11.9354C4.72812 11.8876 4.59201 11.8112 4.47458 11.7106C4.35715 11.6101 4.26071 11.4874 4.19077 11.3495C4.12083 11.2117 4.07878 11.0614 4.06701 10.9072C4.05524 10.7531 4.074 10.5981 4.1222 10.4512ZM7.05543 20.1345C7.10391 20.4375 7.26793 20.7099 7.51304 20.8946H7.52929C7.78073 21.0712 8.09112 21.1428 8.39454 21.0943C8.69795 21.0457 8.97049 20.8808 9.15429 20.6346L11.7055 17.0975C11.8821 16.846 11.9538 16.5357 11.9052 16.2322C11.8567 15.9288 11.6918 15.6563 11.4455 15.4725C11.1941 15.2959 10.8837 15.2243 10.5803 15.2728C10.2769 15.3213 10.0043 15.4863 9.82053 15.7325L7.25304 19.2696C7.07778 19.5215 7.00695 19.8315 7.05543 20.1345ZM18.4872 20.8946C18.2356 21.072 17.9243 21.1436 17.6205 21.0939C17.3166 21.0443 17.0443 20.8774 16.8622 20.6292L14.2947 17.0975C14.1167 16.8465 14.0443 16.5357 14.0929 16.2319C14.1415 15.9281 14.3073 15.6554 14.5547 15.4725C14.8062 15.2959 15.1166 15.2243 15.42 15.2728C15.7234 15.3213 15.9959 15.4863 16.1797 15.7325L18.7472 19.2696C18.9225 19.5215 18.9933 19.8315 18.9448 20.1345C18.8963 20.4375 18.7323 20.7099 18.4872 20.8946ZM21.9332 10.9072C21.945 10.7531 21.9262 10.5981 21.878 10.4512H21.8889C21.7921 10.1556 21.5822 9.91041 21.305 9.76929C21.0279 9.62816 20.7061 9.60265 20.4101 9.69833L16.2501 11.0471C16.0995 11.0942 15.9598 11.1711 15.8394 11.2732C15.7189 11.3753 15.6202 11.5005 15.549 11.6414C15.4778 11.7823 15.4356 11.936 15.4248 12.0935C15.414 12.251 15.435 12.4091 15.4864 12.5583C15.5897 12.8481 15.8021 13.0861 16.0783 13.2217C16.3545 13.3572 16.6726 13.3797 16.9651 13.2842L21.1251 11.9354C21.2721 11.8876 21.4082 11.8112 21.5256 11.7106C21.6431 11.6101 21.7395 11.4874 21.8095 11.3495C21.8794 11.2117 21.9214 11.0614 21.9332 10.9072Z" fill="white"/>
</g>
<defs>
<clipPath id="clip0">
<rect width="26" height="26" fill="white" transform="translate(0.00012207)"/>
</clipPath>
</defs>
</svg>
