<svg width="26" height="26" viewBox="0 0 26 26" fill="none" xmlns="http://www.w3.org/2000/svg">
<path d="M26 13C26 5.8203 20.1797 0 13 0C5.8203 0 0 5.8203 0 13C0 20.1797 5.8203 26 13 26C20.1797 26 26 20.1797 26 13Z" fill="#244F9A"/>
<path d="M2.43748 13C2.43976 10.7709 3.14788 8.59985 4.46031 6.79812C5.77274 4.99639 7.62204 3.65657 9.74299 2.97081C11.8639 2.28506 14.1476 2.2886 16.2664 2.98093C18.3852 3.67325 20.2304 5.0188 21.5372 6.82459C22.844 8.63038 23.5454 10.8036 23.5408 13.0327C23.5362 15.2618 22.8257 17.4321 21.5114 19.2324C20.197 21.0328 18.3463 22.3706 16.2246 23.0541C14.103 23.7376 11.8193 23.7316 9.70123 23.0371C10.4542 18.7037 13.2058 15.1233 16.8458 13.6175C17.2115 14.0271 17.7094 14.2954 18.2526 14.3756C18.7958 14.4559 19.3499 14.343 19.8185 14.0566C20.287 13.7703 20.6402 13.3286 20.8165 12.8086C20.9929 12.2885 20.9811 11.7231 20.7834 11.2109C20.5857 10.6986 20.2145 10.2719 19.7345 10.0052C19.2545 9.7385 18.6962 9.64866 18.1568 9.75133C17.6174 9.854 17.1311 10.1427 16.7826 10.5671C16.4342 10.9915 16.2457 11.5247 16.25 12.0737C14.0102 12.7309 11.9351 13.8551 10.1612 15.3722C8.38726 16.8894 6.95487 18.7651 5.95832 20.8758C5.3481 20.334 4.80279 19.7233 4.33332 19.0558C4.37084 17.1521 4.85509 15.2838 5.74702 13.6016C6.63896 11.9193 7.91363 10.4701 9.46832 9.37082C9.83355 9.77991 10.3306 10.0481 10.873 10.1287C11.4155 10.2094 11.969 10.0974 12.4375 9.81219C12.9059 9.52702 13.2596 9.08672 13.4371 8.56783C13.6146 8.04893 13.6046 7.48425 13.4089 6.97194C13.2133 6.45963 12.8443 6.03208 12.366 5.76362C11.8878 5.49516 11.3307 5.40276 10.7914 5.50248C10.2521 5.6022 9.76488 5.88774 9.4143 6.30946C9.06372 6.73118 8.87201 7.26241 8.87248 7.81082C8.87248 7.87582 8.87248 7.94624 8.87248 8.01124C6.12817 8.95552 3.83276 10.8861 2.43207 13.4279C2.43207 13.2925 2.43207 13.1517 2.43207 13.0162" fill="#FFC10E"/>
</svg>
