<svg width="140" height="60" viewBox="0 0 140 60" fill="none" xmlns="http://www.w3.org/2000/svg">
<g clip-path="url(#clip0)">
<path fill-rule="evenodd" clip-rule="evenodd" d="M97.9443 8.24536H107.533V7.82485C107.236 6.07739 107.119 3.86978 104.777 3.86978H99.201C98.2027 3.86978 98.1275 4.51107 97.9895 5.27033L97.526 7.82485L97.4451 8.24536H97.9443Z" fill="#F4BB26"/>
<path fill-rule="evenodd" clip-rule="evenodd" d="M139.899 46.1939C140.05 44.251 140.124 40.6596 139.425 40.1559L138.999 39.7555C138.827 39.5782 138.691 39.3683 138.601 39.1381C138.51 38.9078 138.466 38.6618 138.471 38.4143C138.222 35.9567 138.053 33.0639 137.776 31.6647C137.295 29.2321 136.857 28.7542 135.579 27.6882L130.859 24.7246C130.343 24.3892 129.857 24.0114 129.404 23.595L117.292 12.4633C115.615 10.8711 114.545 9.54747 110.284 9.46624C105.857 9.41227 99.4165 9.36686 94.6557 9.33056V50.9771H108.914C108.914 48.2005 110.013 45.5376 111.968 43.5743C113.923 41.6109 116.575 40.5079 119.34 40.5079C122.105 40.5079 124.757 41.6109 126.712 43.5743C128.667 45.5376 129.765 48.2005 129.765 50.9771L133.079 50.8643C134.888 50.7176 137.374 49.9645 138.852 48.8541C139.734 48.1913 139.789 47.615 139.899 46.1939ZM92.9041 40.7088H38.9209C41.285 41.1835 43.4123 42.4659 44.9409 44.338C46.4696 46.2101 47.3051 48.5562 47.3055 50.9771H92.9041V40.7088ZM16.0262 50.9494C16.1233 50.9613 16.2225 50.9709 16.3241 50.9771H26.4545C26.4547 48.5562 27.2902 46.21 28.8188 44.3379C30.3475 42.4658 32.4748 41.1834 34.8389 40.7088H16.0262V50.9494ZM119.34 41.1953C117.587 41.1952 115.873 41.7173 114.415 42.6955C112.957 43.6737 111.821 45.064 111.15 46.6907C110.479 48.3174 110.303 50.1074 110.645 51.8343C110.987 53.5613 111.831 55.1475 113.071 56.3926C114.311 57.6376 115.891 58.4855 117.61 58.829C119.33 59.1724 121.113 58.9961 122.733 58.3223C124.352 57.6485 125.737 56.5074 126.711 55.0434C127.685 53.5793 128.205 51.8581 128.205 50.0974C128.205 48.9283 127.976 47.7707 127.53 46.6906C127.085 45.6105 126.432 44.6291 125.609 43.8025C124.786 42.9758 123.808 42.3201 122.733 41.8728C121.657 41.4254 120.504 41.1952 119.34 41.1953ZM119.34 45.1446C120.316 45.1446 121.269 45.4352 122.08 45.9795C122.891 46.5237 123.524 47.2973 123.897 48.2024C124.27 49.1075 124.368 50.1034 124.177 51.0642C123.987 52.025 123.517 52.9075 122.827 53.6002C122.138 54.2928 121.259 54.7645 120.302 54.9556C119.345 55.1466 118.353 55.0485 117.452 54.6736C116.551 54.2986 115.781 53.6638 115.239 52.8492C114.697 52.0347 114.407 51.077 114.407 50.0974C114.407 49.4469 114.535 48.8027 114.783 48.2017C115.03 47.6006 115.394 47.0545 115.852 46.5946C116.31 46.1346 116.854 45.7698 117.452 45.521C118.051 45.2722 118.692 45.1443 119.34 45.1446ZM36.8486 41.1953C35.0952 41.1953 33.3812 41.7174 31.9234 42.6956C30.4655 43.6738 29.3292 45.0642 28.6582 46.6909C27.9873 48.3176 27.8117 50.1076 28.1538 51.8345C28.4959 53.5614 29.3402 55.1476 30.5801 56.3926C31.8199 57.6377 33.3996 58.4855 35.1193 58.829C36.8389 59.1724 38.6214 58.9961 40.2413 58.3223C41.8612 57.6484 43.2458 56.5074 44.2199 55.0433C45.1939 53.5793 45.7138 51.8581 45.7138 50.0974C45.7138 48.9283 45.4846 47.7707 45.0391 46.6906C44.5936 45.6105 43.9406 44.6291 43.1173 43.8024C42.2941 42.9758 41.3168 42.3201 40.2412 41.8727C39.1656 41.4254 38.0128 41.1952 36.8486 41.1953ZM36.8486 45.1446C37.8242 45.1445 38.7778 45.435 39.589 45.9792C40.4002 46.5234 41.0324 47.297 41.4057 48.2021C41.7791 49.1071 41.8768 50.1031 41.6865 51.0639C41.4962 52.0247 41.0264 52.9073 40.3366 53.6C39.6468 54.2927 38.7679 54.7644 37.8111 54.9555C36.8543 55.1466 35.8625 55.0485 34.9612 54.6736C34.0599 54.2987 33.2896 53.6638 32.7476 52.8493C32.2057 52.0347 31.9164 51.077 31.9165 50.0974C31.9163 49.4469 32.0437 48.8028 32.2915 48.2018C32.5393 47.6008 32.9026 47.0547 33.3606 46.5948C33.8187 46.1348 34.3625 45.77 34.9609 45.5212C35.5594 45.2724 36.2009 45.1444 36.8486 45.1446ZM117.048 14.5533L124.915 22.3387C126.34 23.6739 125.739 24.8899 123.866 24.8899H102.962C102.571 24.889 102.195 24.7429 101.905 24.48C101.615 24.217 101.432 23.8557 101.391 23.4655L100.944 13.1284C100.934 13.0388 100.943 12.9481 100.97 12.8622C100.997 12.7763 101.042 12.6971 101.102 12.6298C101.162 12.5625 101.235 12.5087 101.317 12.4718C101.399 12.4348 101.488 12.4157 101.577 12.4155L113.445 12.5584C115.164 12.5584 115.878 13.395 117.048 14.5533ZM136.692 30.1567C136.862 30.7229 136.988 31.3346 137.08 31.8038C137.217 32.4957 137.296 33.2268 137.371 33.9278C137.424 34.4367 137.474 34.9466 137.518 35.4574C137.537 35.6485 137.561 35.7101 137.203 35.7101H135.679C135.215 35.7101 135.259 35.7756 134.896 35.4536C134.612 35.2027 134.228 34.8166 133.957 34.5437C133.61 34.1949 133.662 34.3187 133.601 33.8274L133.111 29.9001C133.1 29.842 133.101 29.782 133.116 29.7246C133.131 29.6673 133.159 29.6141 133.198 29.5692C133.236 29.5244 133.285 29.489 133.339 29.4658C133.393 29.4427 133.452 29.4323 133.511 29.4356L136.076 29.7209C136.485 29.7209 136.577 29.7706 136.692 30.1567ZM85.4933 2H92.9041C92.9041 14.4654 92.9417 26.8687 92.9417 39.3059H14.3303L0 44.2429V37.836L14.4057 32.898H64.9502L70.7179 30.2222H80.6887L82.8215 4.76003C82.9657 2.95381 83.9735 2.17253 85.4933 2Z" fill="white"/>
<path fill-rule="evenodd" clip-rule="evenodd" d="M58.297 12.3534C58.6958 12.4461 59.0983 12.5311 59.5304 12.6057C62.3402 13.0247 65.1232 13.6082 67.8652 14.3531C70.3044 15.0575 72.8863 15.7905 74.7326 17.6459C75.6608 18.6951 76.3119 19.9613 76.6265 21.3286C76.7124 21.7216 76.7739 22.1197 76.8106 22.5203C76.9582 23.6178 76.7715 24.7344 76.2753 25.7233L75.5625 27.3241C74.9877 28.6166 73.9532 28.6802 72.392 28.6926C71.3827 28.7007 70.3535 28.6998 69.3466 28.6343C69.2119 28.6247 69.0606 28.6152 68.9012 28.6009C69.5139 27.4464 69.8183 26.1522 69.7847 24.8445C69.7511 23.5367 69.3806 22.26 68.7094 21.1388C68.0382 20.0177 67.0891 19.0903 65.9547 18.4471C64.8204 17.8038 63.5394 17.4668 62.2366 17.4687C60.9339 17.4706 59.6539 17.8114 58.5214 18.458C57.3889 19.1045 56.4426 20.0347 55.7746 21.1579C55.1067 22.281 54.74 23.5588 54.7102 24.8667C54.6804 26.1745 54.9886 27.4678 55.6047 28.6204H25.1421C25.746 27.4906 26.0542 26.2253 26.0379 24.9432C26.0216 23.661 25.6813 22.404 25.0489 21.2901C24.4164 20.1761 23.5126 19.2417 22.4222 18.5745C21.3318 17.9073 20.0905 17.5291 18.8147 17.4755C17.5389 17.4218 16.2704 17.6944 15.1283 18.2677C13.9861 18.8409 13.0076 19.6961 12.2846 20.7531C11.5616 21.81 11.1178 23.034 10.9947 24.3103C10.8717 25.5866 11.0734 26.8733 11.5811 28.0499L8.16454 27.6461C7.16649 27.5946 6.18364 27.3787 5.25524 27.0073C4.51577 26.6546 4.19793 25.5303 4.01111 24.7963C3.7558 23.7363 3.57549 22.6594 3.47151 21.5738C3.34258 20.3428 3.11727 18.0248 3.62641 16.9024C4.32993 15.3533 4.56479 16.878 5.117 14.0172C5.69373 11.0274 5.99062 11.274 10.7041 9.62729C11.8533 9.23404 13.0134 8.86182 14.1778 8.5216C16.6626 7.79669 19.1594 7.11768 21.668 6.48457C23.1784 6.10609 24.7339 5.77307 26.2699 5.49783C26.938 5.38025 27.6201 5.28518 28.292 5.19965C29.7681 5.01136 31.2596 4.87328 32.7456 4.82645C35.1502 4.75463 37.5569 4.83283 39.9518 5.06059C41.2783 5.19352 42.587 5.4671 43.8561 5.87675L43.8618 5.87817C45.0286 6.26858 46.2225 6.73495 47.344 7.23859C49.1418 8.04663 50.8962 8.94784 52.6597 9.82894C53.8883 10.4425 55.113 11.0675 56.3337 11.704C56.9544 12.0122 57.6154 12.2309 58.297 12.3534ZM18.4582 18.69C19.7362 18.69 20.9855 19.0705 22.0482 19.7834C23.1108 20.4964 23.939 21.5097 24.4282 22.6953C24.9173 23.881 25.0453 25.1856 24.7961 26.4443C24.5468 27.703 23.9315 28.8593 23.0279 29.7668C22.1243 30.6743 20.973 31.2924 19.7196 31.5429C18.4662 31.7933 17.1669 31.665 15.9862 31.1739C14.8054 30.6829 13.7962 29.8514 13.0861 28.7844C12.376 27.7174 11.9969 26.4629 11.9967 25.1795C11.9968 23.4586 12.6776 21.8081 13.8893 20.5911C15.101 19.3742 16.7445 18.6903 18.4582 18.69ZM18.4582 21.3291C19.2165 21.3291 19.9578 21.5549 20.5883 21.978C21.2188 22.4011 21.7102 23.0024 22.0004 23.7059C22.2906 24.4094 22.3666 25.1835 22.2187 25.9304C22.0707 26.6772 21.7056 27.3633 21.1694 27.9017C20.6332 28.4402 19.9501 28.8069 19.2063 28.9555C18.4626 29.1041 17.6917 29.0279 16.9911 28.7365C16.2905 28.4451 15.6917 27.9517 15.2704 27.3185C14.849 26.6854 14.6241 25.941 14.6241 25.1795C14.6241 24.1584 15.0281 23.1791 15.7471 22.457C16.4661 21.7349 17.4413 21.3292 18.4582 21.3291ZM62.2646 18.69C63.5426 18.6899 64.7919 19.0703 65.8546 19.7832C66.9174 20.4961 67.7457 21.5094 68.2349 22.695C68.7241 23.8806 68.8522 25.1853 68.603 26.444C68.3538 27.7028 67.7385 28.859 66.8349 29.7666C65.9313 30.6742 64.78 31.2923 63.5266 31.5428C62.2732 31.7933 60.9739 31.665 59.7931 31.174C58.6124 30.683 57.6031 29.8514 56.893 28.7844C56.1828 27.7174 55.8037 26.4629 55.8036 25.1795C55.8036 23.4587 56.4843 21.8083 57.6959 20.5913C58.9076 19.3743 60.5509 18.6904 62.2646 18.69ZM62.2646 21.3291C63.0229 21.3291 63.7642 21.5548 64.3947 21.9779C65.0253 22.4009 65.5167 23.0022 65.807 23.7057C66.0972 24.4092 66.1732 25.1834 66.0253 25.9302C65.8774 26.6771 65.5123 27.3632 64.9761 27.9016C64.4399 28.4401 63.7568 28.8069 63.013 28.9555C62.2693 29.1041 61.4984 29.0279 60.7978 28.7365C60.0972 28.4451 59.4983 27.9517 59.077 27.3185C58.6557 26.6854 58.4307 25.941 58.4307 25.1795C58.4307 24.1584 58.8347 23.1792 59.5536 22.4571C60.2726 21.735 61.2477 21.3293 62.2646 21.3291ZM50.3361 10.1615C49.4687 9.67842 48.5841 9.22498 47.6947 8.80398C46.8049 8.38396 45.9127 7.99643 45.1219 7.68391C39.372 5.41612 30.6072 5.83374 24.8288 7.34609C23.6599 7.6524 22.3225 8.03753 21.3987 8.31326C20.4763 8.58991 19.9681 8.75858 19.6497 8.88858C19.4562 8.95534 19.2763 9.05686 19.1189 9.18819C19.0523 9.24025 18.9998 9.30827 18.9661 9.38601C18.9553 9.41465 18.9503 9.44518 18.9514 9.4758C18.9526 9.50641 18.9599 9.53648 18.9728 9.56422C19.0147 9.65149 19.078 9.72663 19.1568 9.7826C20.7772 11.0986 23.963 11.2242 25.904 11.4579C27.4961 11.6491 29.4807 11.8655 32.8256 12.1202C36.1707 12.3758 41.9118 12.6683 44.676 12.8456C47.4406 13.0224 48.2624 13.0835 48.989 13.1346C49.7161 13.1853 50.349 13.2273 51.1189 13.266C51.8888 13.3052 52.7967 13.343 53.3306 13.3554C53.5757 13.3602 54.751 13.4333 54.3356 12.8623C54.1609 12.6602 53.9561 12.4864 53.7284 12.3472C53.2826 12.0265 52.4931 11.4933 51.688 10.9829L50.3361 10.1615H50.3361Z" fill="#F4BB26"/>
</g>
<defs>
<clipPath id="clip0">
<rect width="140" height="60" fill="white"/>
</clipPath>
</defs>
</svg>
