<svg width="75" height="75" viewBox="0 0 75 75" fill="none" xmlns="http://www.w3.org/2000/svg">
<path d="M38 10C27.5234 10 19 18.5553 19 29.0711C19 33.3725 22.0061 40.4615 27.9348 50.1412C32.2693 57.2181 36.6652 63.1908 36.7091 63.2502L38 65L39.2909 63.2502C39.3348 63.1908 43.7307 57.2181 48.0652 50.1412C53.9939 40.4615 57 33.3725 57 29.0711C57 18.5553 48.4766 10 38 10ZM38 39.6813C32.009 39.6813 27.135 34.789 27.135 28.7756C27.135 22.7621 32.0091 17.8699 38 17.8699C43.9909 17.8699 48.865 22.7623 48.865 28.7756C48.865 34.789 43.991 39.6813 38 39.6813Z" fill="#F4BB26"/>
</svg>
