<svg width="32" height="32" viewBox="0 0 32 32" fill="none" xmlns="http://www.w3.org/2000/svg">
<path fill-rule="evenodd" clip-rule="evenodd" d="M6.12775 15.1028C6.12775 21.1339 11.7134 25.8723 16.0997 25.8723C21.5327 25.8723 25.7228 20.4361 25.6729 16.3489C25.6729 12.3115 23.4798 8.37071 18.595 7.17445C18.595 7.17445 18.595 7.62871 18.595 6.92522C18.595 6.22173 19.9377 2.14329 22.8287 1.54516C22.5795 1.44547 18.6823 0.39563 18.6823 0.39563C18.6823 0.39563 13.7041 1.84111 11.0125 4.03426C8.27105 6.27725 6.12775 11.1153 6.12775 15.1028Z" fill="white"/>
<path d="M16 0C7.17757 0 0 7.17757 0 16C0 24.8224 7.17757 32 16 32C24.8224 32 32 24.8224 32 16C32 7.17757 24.8224 0 16 0ZM16.0997 24.8723C11.7134 24.8723 7.12773 21.134 7.12773 15.1028C7.12773 11.1153 9.27103 7.27726 12.0125 5.03427C14.7041 2.84112 18.3427 1.39564 21.6822 1.39564C22.1308 1.39564 22.5794 1.44548 22.8287 1.54517C19.9377 2.1433 17.595 4.83489 17.595 7.92523C17.595 8.02492 17.595 8.12461 17.595 8.17445C22.4798 9.37072 24.6729 12.3115 24.6729 16.3489C24.7227 20.4361 21.5327 24.8723 16.0997 24.8723Z" fill="#EE3023"/>
</svg>
